[img]http://img685.imageshack.us/img685/2171/hugop.jpg[/img]
[code]
Hugo 2011 CaM 720p XviD AC3 -26K

Imdb: 
http://www.imdb.com/title/tt0970179/

Plot:
Set in 1930s Paris, an orphan who lives in the walls of a train station is wrapped up in a mystery involving his late father and an automaton.

Sources:
ILLUMANTI!

Notes:
Encoded the video added a few filters to it to make it look nice :)
!

Greetz:
To all the people who have helped me :P you know who you are

Anything to offer email us @: 26k@hushmail.me

Video
ID                                       : 0
Format                                   : MPEG-4 Visual
Format profile                           : Advanced Simple@L5
Format settings, BVOP                    : 2
Format settings, QPel                    : No
Format settings, GMC                     : No warppoints
Format settings, Matrix                  : Default (H.263)
Codec ID                                 : XVID
Codec ID/Hint                            : XviD
Duration                                 : 2h 0mn
Bit rate                                 : 2 650 Kbps
Width                                    : 1 280 pixels
Height                                   : 608 pixels
Display aspect ratio                     : 2.2:1
Frame rate                               : 24.000 fps
Color space                              : YUV
Chroma subsampling                       : 4:2:0
Bit depth                                : 8 bits
Scan type                                : Progressive
Compression mode                         : Lossy
Bits/(Pixel*Frame)                       : 0.142
Stream size                              : 2.24 GiB (93%)
Writing library                          : XviD 63

Audio
ID                                       : 1
Format                                   : AC-3
Format/Info                              : Audio Coding 3
Mode extension                           : CM (complete main)
Codec ID                                 : 2000
Duration                                 : 2h 0mn
Bit rate mode                            : Constant
Bit rate                                 : 192 Kbps
Channel(s)                               : 2 channels
Channel positions                        : Front: L R
Sampling rate                            : 44.1 KHz
Bit depth                                : 16 bits
Compression mode                         : Lossy
Stream size                              : 166 MiB (7%)
Alignment                                : Aligned on interleaves
Interleave, duration                     : 35 ms (0.84 video frame)

[/code]
Screens:
[img]http://img823.imageshack.us/img823/191/vlcsnap2011121300h29m25.png[/img]
[img]http://img811.imageshack.us/img811/9787/vlcsnap2011121300h29m48.png[/img]
[img]http://img221.imageshack.us/img221/3383/vlcsnap2011121300h29m53.png[/img]
[img]http://img220.imageshack.us/img220/7189/vlcsnap2011121300h30m06.png[/img]
[img]http://img522.imageshack.us/img522/1742/vlcsnap2011121300h30m20.png[/img]

[img]http://img851.imageshack.us/img851/5503/26ks.jpg[/img]#
Thank you smallz for banner!
